g missile_launcher
v 0.40960595 10.398279 7.326863
v 0.40960607 10.962604 6.7625384
v 0.97393006 10.398279 6.762539
v 0.40960595 -0.01719728 6.76254
v 0.40960607 0.5471267 7.326864
v 0.97393006 0.54712665 6.76254
v 0.40960643 10.962603 -3.0886137
v 0.40960655 10.398278 -3.6529377
v 0.9739304 10.398278 -3.0886135
v 0.40960643 0.5471254 -3.6529365
v 0.40960655 -0.017198455 -3.0886126
v 0.9739304 0.54712546 -3.0886123
v -0.86087704 1.1848953 -3.1913538E-07
v 1.392928 -0.45258972 3.4177654E-07
v 0.86087674 1.1848954 3.663421E-08
v -1.392928 -0.45258993 -2.3387071E-07
v 8.968157E-17 -1.4646112 1.7459529E-07
v 8.968157E-17 -1.4646112 1.7459529E-07
v -6.9008183E-07 -1.4646108 3.3396645
v 1.3929273 -0.45258933 3.3396645
v 1.392928 -0.45258972 3.4177654E-07
v 1.392928 -0.45258972 3.4177654E-07
v 1.3929273 -0.45258933 3.3396645
v 0.860876 1.1848958 3.3396642
v 0.86087674 1.1848954 3.663421E-08
v 0.86087674 1.1848954 3.663421E-08
v 0.860876 1.1848958 3.3396642
v -0.86087775 1.1848956 3.339664
v -0.86087704 1.1848953 -3.1913538E-07
v -0.86087704 1.1848953 -3.1913538E-07
v -0.86087775 1.1848956 3.339664
v -1.3929287 -0.45258954 3.339664
v -1.392928 -0.45258993 -2.3387071E-07
v -1.392928 -0.45258993 -2.3387071E-07
v -1.3929287 -0.45258954 3.339664
v -6.9008183E-07 -1.4646108 3.3396645
v 8.968157E-17 -1.4646112 1.7459529E-07
v -1.3929287 -0.45258954 3.339664
v 1.3929273 -0.45258933 3.3396645
v -6.9008183E-07 -1.4646108 3.3396645
v 0.860876 1.1848958 3.3396642
v -0.86087775 1.1848956 3.339664
v 0.97393006 10.398279 6.762539
v 0.9739304 10.398278 -3.0886135
v 0.9739304 0.54712546 -3.0886123
v 0.97393006 0.54712665 6.76254
v -0.20431384 10.398279 7.3268623
v 0.40960595 10.398279 7.326863
v 0.40960607 0.5471267 7.326864
v -0.20431384 0.5471267 7.326864
v -0.20431381 -0.01719728 6.76254
v 0.40960595 -0.01719728 6.76254
v 0.40960655 -0.017198455 -3.0886126
v -0.20431338 -0.017198455 -3.0886126
v -0.20431335 0.5471254 -3.6529365
v 0.40960643 0.5471254 -3.6529365
v 0.40960655 10.398278 -3.6529377
v -0.20431335 10.398278 -3.6529377
v -0.20431338 10.962603 -3.088614
v 0.40960643 10.962603 -3.0886137
v 0.40960607 10.962604 6.7625384
v -0.20431381 10.962604 6.7625384
v 0.97393006 10.398279 6.762539
v 0.97393006 0.54712665 6.76254
v 0.40960607 0.5471267 7.326864
v 0.40960595 10.398279 7.326863
v 0.97393006 0.54712665 6.76254
v 0.9739304 0.54712546 -3.0886123
v 0.40960655 -0.017198455 -3.0886126
v 0.40960595 -0.01719728 6.76254
v 0.9739304 0.54712546 -3.0886123
v 0.9739304 10.398278 -3.0886135
v 0.40960655 10.398278 -3.6529377
v 0.40960643 0.5471254 -3.6529365
v 0.9739304 10.398278 -3.0886135
v 0.97393006 10.398279 6.762539
v 0.40960607 10.962604 6.7625384
v 0.40960643 10.962603 -3.0886137
v -0.20431384 0.5471267 7.326864
v 0.40960607 0.5471267 7.326864
v 0.40960595 -0.01719728 6.76254
v -0.20431381 -0.01719728 6.76254
v 0.40960595 10.398279 7.326863
v -0.20431384 10.398279 7.3268623
v -0.20431381 10.962604 6.7625384
v 0.40960607 10.962604 6.7625384
v -0.20431338 -0.017198455 -3.0886126
v 0.40960655 -0.017198455 -3.0886126
v 0.40960643 0.5471254 -3.6529365
v -0.20431335 0.5471254 -3.6529365
v -0.20431335 10.398278 -3.6529377
v 0.40960655 10.398278 -3.6529377
v 0.40960643 10.962603 -3.0886137
v -0.20431338 10.962603 -3.088614
v -0.20431338 10.962603 -3.088614
v -0.20431335 0.5471254 -3.6529365
v -0.20431335 10.398278 -3.6529377
v -0.20431338 -0.017198455 -3.0886126
v -0.20431381 -0.01719728 6.76254
v -0.20431381 10.962604 6.7625384
v -0.20431384 10.398279 7.3268623
v -0.20431384 0.5471267 7.326864
vt 0.94703007 0.026391117
vt 0.97383404 0.026391117
vt 0.96043205 0.001
vt 0.47483423 0.0771033
vt 0.46143213 0.051712047
vt 0.44803014 0.0771033
vt 0.9736785 0.5639588
vt 0.94828737 0.5505568
vt 0.94828737 0.5773609
vt 0.46143204 0.5264933
vt 0.47483414 0.50110215
vt 0.44803008 0.50110215
vt 0.14603458 0.6182636
vt 0.048726905 0.5475654
vt 0.071698144 0.6182636
vt 0.16900583 0.5475654
vt 0.108866364 0.5038716
vt 0.27687216 0.6182636
vt 0.27687216 0.762453
vt 0.33701155 0.762453
vt 0.33701155 0.6182636
vt 0.001 0.6182636
vt 0.001 0.762453
vt 0.07169812 0.762453
vt 0.071698144 0.6182636
vt 0.071698144 0.6182636
vt 0.07169812 0.762453
vt 0.14603458 0.762453
vt 0.14603458 0.6182636
vt 0.14603458 0.6182636
vt 0.14603458 0.762453
vt 0.21673271 0.762453
vt 0.21673271 0.6182636
vt 0.21673271 0.6182636
vt 0.21673271 0.762453
vt 0.27687216 0.762453
vt 0.27687216 0.6182636
vt 0.1690057 0.83315116
vt 0.048726853 0.83315116
vt 0.10886631 0.876845
vt 0.07169812 0.762453
vt 0.14603458 0.762453
vt 0.02528888 0.0771033
vt 0.02528888 0.50110215
vt 0.44803008 0.50110215
vt 0.44803014 0.0771033
vt 0.94828755 0.05281458
vt 0.94703007 0.026391117
vt 0.52428895 0.026391117
vt 0.52428883 0.05281458
vt 0.5 0.0771033
vt 0.47483423 0.0771033
vt 0.47483414 0.50110215
vt 0.5 0.50110215
vt 0.5242887 0.52539104
vt 0.5242887 0.5518143
vt 0.94828737 0.5505568
vt 0.94828737 0.52539104
vt 0.97257626 0.5011023
vt 0.999 0.5011023
vt 0.999 0.07710346
vt 0.97257626 0.07710346
vt 0.02528888 0.0771033
vt 0.44803014 0.0771033
vt 0.4492877 0.0528145
vt 0.02528888 0.0528145
vt 0.44803014 0.0771033
vt 0.44803008 0.50110215
vt 0.47483414 0.50110215
vt 0.47483423 0.0771033
vt 0.5242887 0.57610327
vt 0.94828737 0.5773609
vt 0.94828737 0.5505568
vt 0.5242887 0.5518143
vt 0.02528888 0.50110215
vt 0.02528888 0.0771033
vt 0.001000027 0.0771033
vt 0.001000027 0.50110215
vt 0.5 0.052814525
vt 0.47357664 0.052814525
vt 0.47483423 0.0771033
vt 0.5 0.0771033
vt 0.94703007 0.026391117
vt 0.94828755 0.05281458
vt 0.97257626 0.05281458
vt 0.97383404 0.026391117
vt 0.49203953 0.51030964
vt 0.47483414 0.50110215
vt 0.46143204 0.5264933
vt 0.47737992 0.5357008
vt 0.94828737 0.52539104
vt 0.94828737 0.5505568
vt 0.97257626 0.55181444
vt 0.97257626 0.52539104
vt 0.97257626 0.5011023
vt 0.5242887 0.52539104
vt 0.94828737 0.52539104
vt 0.5 0.50110215
vt 0.5 0.0771033
vt 0.97257626 0.07710346
vt 0.94828755 0.05281458
vt 0.52428883 0.05281458
vn 0.57735026 0.57735 0.5773505
vn 0.57735026 0.57735 0.5773505
vn 0.57735026 0.57735 0.5773505
vn 0.57735014 -0.5773504 0.5773503
vn 0.57735014 -0.5773504 0.5773503
vn 0.57735014 -0.5773504 0.5773503
vn 0.5773505 0.5773499 -0.5773504
vn 0.5773505 0.5773499 -0.5773504
vn 0.5773505 0.5773499 -0.5773504
vn 0.5773504 -0.5773502 -0.57735026
vn 0.5773504 -0.5773502 -0.57735026
vn 0.5773504 -0.5773502 -0.57735026
vn -0 0 -1
vn -0 0 -1
vn -0 0 -1
vn -0 0 -1
vn -0 0 -1
vn 0.58778524 -0.809017 0
vn 0.58778524 -0.809017 0
vn 0.58778524 -0.809017 0
vn 0.58778524 -0.809017 0
vn 0.95105654 0.3090171 0
vn 0.95105654 0.3090171 0
vn 0.95105654 0.3090171 0
vn 0.95105654 0.3090171 0
vn -0 1 0
vn -0 1 0
vn -0 1 0
vn -0 1 0
vn -0.95105654 0.30901688 0
vn -0.95105654 0.30901688 0
vn -0.95105654 0.30901688 0
vn -0.95105654 0.30901688 0
vn -0.5877852 -0.809017 0
vn -0.5877852 -0.809017 0
vn -0.5877852 -0.809017 0
vn -0.5877852 -0.809017 0
vn -0 0 1
vn -0 0 1
vn -0 0 1
vn -0 0 1
vn -0 0 1
vn 1 0 0
vn 1 0 0
vn 1 0 0
vn 1 0 0
vn -0 0 1
vn -0 0 1
vn -0 0 1
vn -0 0 1
vn -0 -1 0
vn -0 -1 0
vn -0 -1 0
vn -0 -1 0
vn -0 0 -1
vn -0 0 -1
vn -0 0 -1
vn -0 0 -1
vn -0 1 0
vn -0 1 0
vn -0 1 0
vn -0 1 0
vn 0.70710665 0 0.7071069
vn 0.70710665 0 0.7071069
vn 0.70710665 0 0.7071069
vn 0.70710665 0 0.7071069
vn 0.7071067 -0.70710677 0
vn 0.7071067 -0.70710677 0
vn 0.7071067 -0.70710677 0
vn 0.7071067 -0.70710677 0
vn 0.7071068 0 -0.70710665
vn 0.7071068 0 -0.70710665
vn 0.7071068 0 -0.70710665
vn 0.7071068 0 -0.70710665
vn 0.707107 0.70710653 0
vn 0.707107 0.70710653 0
vn 0.707107 0.70710653 0
vn 0.707107 0.70710653 0
vn -0 -0.7071067 0.7071068
vn -0 -0.7071067 0.7071068
vn -0 -0.7071067 0.7071068
vn -0 -0.7071067 0.7071068
vn -0 0.7071065 0.70710707
vn -0 0.7071065 0.70710707
vn -0 0.7071065 0.70710707
vn -0 0.7071065 0.70710707
vn -0 -0.7071068 -0.7071067
vn -0 -0.7071068 -0.7071067
vn -0 -0.7071068 -0.7071067
vn -0 -0.7071068 -0.7071067
vn -0 0.70710635 -0.7071071
vn -0 0.70710635 -0.7071071
vn -0 0.70710635 -0.7071071
vn -0 0.7071064 -0.7071071
vn -1 0 0
vn -1 0 0
vn -1 0 0
vn -1 0 0
vn -1 0 0
vn -1 0 0
vn -1 0 0
vn -1 0 0
g missile_launcher_0
f 3/3/3 2/2/2 1/1/1
f 6/6/6 5/5/5 4/4/4
f 9/9/9 8/8/8 7/7/7
f 12/12/12 11/11/11 10/10/10
f 15/15/15 14/14/14 13/13/13
f 14/14/14 16/16/16 13/13/13
f 17/17/17 16/16/16 14/14/14
f 20/20/20 19/19/19 18/18/18
f 21/21/21 20/20/20 18/18/18
f 24/24/24 23/23/23 22/22/22
f 25/25/25 24/24/24 22/22/22
f 28/28/28 27/27/27 26/26/26
f 29/29/29 28/28/28 26/26/26
f 32/32/32 31/31/31 30/30/30
f 33/33/33 32/32/32 30/30/30
f 36/36/36 35/35/35 34/34/34
f 37/37/37 36/36/36 34/34/34
f 40/40/40 39/39/39 38/38/38
f 38/38/38 39/39/39 41/41/41
f 42/42/42 38/38/38 41/41/41
f 45/45/45 44/44/44 43/43/43
f 46/46/46 45/45/45 43/43/43
f 49/49/49 48/48/48 47/47/47
f 50/50/50 49/49/49 47/47/47
f 53/53/53 52/52/52 51/51/51
f 54/54/54 53/53/53 51/51/51
f 57/57/57 56/56/56 55/55/55
f 58/58/58 57/57/57 55/55/55
f 61/61/61 60/60/60 59/59/59
f 62/62/62 61/61/61 59/59/59
f 65/65/65 64/64/64 63/63/63
f 66/66/66 65/65/65 63/63/63
f 69/69/69 68/68/68 67/67/67
f 70/70/70 69/69/69 67/67/67
f 73/73/73 72/72/72 71/71/71
f 74/74/74 73/73/73 71/71/71
f 77/77/77 76/76/76 75/75/75
f 78/78/78 77/77/77 75/75/75
f 81/81/81 80/80/80 79/79/79
f 82/82/82 81/81/81 79/79/79
f 85/85/85 84/84/84 83/83/83
f 86/86/86 85/85/85 83/83/83
f 89/89/89 88/88/88 87/87/87
f 90/90/90 89/89/89 87/87/87
f 93/93/93 92/92/92 91/91/91
f 94/94/94 93/93/93 91/91/91
f 97/97/97 96/96/96 95/95/95
f 96/96/96 98/98/98 95/95/95
f 95/95/95 98/98/98 99/99/99
f 100/100/100 95/95/95 99/99/99
f 101/101/101 100/100/100 99/99/99
f 102/102/102 101/101/101 99/99/99
