g torpedo_launcher_base
v -6.785597 -2.3444625E-06 10
v -6.785597 6.2962985 10
v 6.785597 6.2962985 10
v 6.785597 -2.3444625E-06 10
v 10 -2.2039565E-06 6.785597
v 10 6.2962985 6.7855973
v 10 6.2962995 -6.7855964
v 10 -1.6107408E-06 -6.785597
v 6.785597 -1.4702348E-06 -10
v 6.785597 6.2962995 -10
v -6.785597 6.2962995 -10
v -6.785597 -1.4702348E-06 -10
v -10 -1.6107408E-06 -6.785597
v -10 6.2962995 -6.7855964
v -10 6.2962985 6.7855973
v -10 -2.2039565E-06 6.785597
v 6.785597 -2.3444625E-06 10
v 6.785597 6.2962985 10
v 10 6.2962985 6.7855973
v 10 -2.2039565E-06 6.785597
v -6.785597 6.2962985 10
v -6.785597 -2.3444625E-06 10
v -10 -2.2039565E-06 6.785597
v -10 6.2962985 6.7855973
v 10 -1.6107408E-06 -6.785597
v 10 6.2962995 -6.7855964
v 6.785597 6.2962995 -10
v 6.785597 -1.4702348E-06 -10
v -6.785597 -1.4702348E-06 -10
v -6.785597 6.2962995 -10
v -10 6.2962995 -6.7855964
v -10 -1.6107408E-06 -6.785597
v -6.118416 7.907016 8.389282
v 6.118416 7.907016 8.389282
v 6.785597 6.2962985 10
v -6.785597 6.2962985 10
v 8.389282 7.907016 6.1184163
v 8.389282 7.9070168 -6.1184154
v 10 6.2962995 -6.7855964
v 10 6.2962985 6.7855973
v 6.118416 7.9070168 -8.389282
v -6.118416 7.9070168 -8.389282
v -6.785597 6.2962995 -10
v 6.785597 6.2962995 -10
v -8.389282 7.9070168 -6.1184154
v -8.389282 7.907016 6.1184163
v -10 6.2962985 6.7855973
v -10 6.2962995 -6.7855964
v -6.785597 6.2962985 10
v -10 6.2962985 6.7855973
v -8.389282 7.907016 6.1184163
v -6.118416 7.907016 8.389282
v 10 6.2962985 6.7855973
v 6.785597 6.2962985 10
v 6.118416 7.907016 8.389282
v 8.389282 7.907016 6.1184163
v -10 6.2962995 -6.7855964
v -6.785597 6.2962995 -10
v -6.118416 7.9070168 -8.389282
v -8.389282 7.9070168 -6.1184154
v 6.785597 6.2962995 -10
v 10 6.2962995 -6.7855964
v 8.389282 7.9070168 -6.1184154
v 6.118416 7.9070168 -8.389282
v -3.3537364 7.9070163 4.598485
v -3.3537364 5.557823 4.598485
v 3.3537364 5.557823 4.598485
v 3.3537364 7.9070163 4.598485
v 4.5984845 7.9070163 3.3537366
v 4.5984845 5.557823 3.3537366
v 4.5984845 5.557823 -3.3537362
v 4.5984845 7.9070163 -3.3537362
v 3.3537364 7.9070163 -4.598484
v 3.3537364 5.557823 -4.598484
v -3.3537364 5.557823 -4.598484
v -3.3537364 7.9070163 -4.598484
v -4.5984845 7.9070163 -3.3537362
v -4.5984845 5.557823 -3.3537362
v -4.5984845 5.557823 3.3537366
v -4.5984845 7.9070163 3.3537366
v -4.5984845 7.9070163 3.3537366
v -4.5984845 5.557823 3.3537366
v -3.3537364 5.557823 4.598485
v -3.3537364 7.9070163 4.598485
v 3.3537364 7.9070163 4.598485
v 3.3537364 5.557823 4.598485
v 4.5984845 5.557823 3.3537366
v 4.5984845 7.9070163 3.3537366
v -3.3537364 7.9070163 -4.598484
v -3.3537364 5.557823 -4.598484
v -4.5984845 5.557823 -3.3537362
v -4.5984845 7.9070163 -3.3537362
v 4.5984845 7.9070163 -3.3537362
v 4.5984845 5.557823 -3.3537362
v 3.3537364 5.557823 -4.598484
v 3.3537364 7.9070163 -4.598484
v -3.3537364 5.557823 4.598485
v -0 5.557823 2.4294025E-07
v 3.3537364 5.557823 4.598485
v -4.5984845 5.557823 3.3537366
v 4.5984845 5.557823 3.3537366
v -4.5984845 5.557823 -3.3537362
v 4.5984845 5.557823 -3.3537362
v -3.3537364 5.557823 -4.598484
v 3.3537364 5.557823 -4.598484
v -8.389282 7.9070168 -6.1184154
v -4.5984845 7.9070163 -3.3537362
v -4.5984845 7.9070163 3.3537366
v -8.389282 7.907016 6.1184163
v -6.118416 7.9070168 -8.389282
v -3.3537364 7.9070163 4.598485
v -3.3537364 7.9070163 -4.598484
v -6.118416 7.907016 8.389282
v 6.118416 7.9070168 -8.389282
v 3.3537364 7.9070163 4.598485
v 3.3537364 7.9070163 -4.598484
v 6.118416 7.907016 8.389282
v 8.389282 7.9070168 -6.1184154
v 4.5984845 7.9070163 3.3537366
v 4.5984845 7.9070163 -3.3537362
v 8.389282 7.907016 6.1184163
vt 0.0010000542 0.9117925
vt 0.1718198 0.9117925
vt 0.17181985 0.5436036
vt 0.0010001083 0.5436036
vt 0.0010001083 0.4563963
vt 0.17181987 0.4563963
vt 0.17181993 0.08820732
vt 0.0010002167 0.08820732
vt 0.82465166 0.815497
vt 0.9935865 0.81549734
vt 0.9935869 0.4513712
vt 0.82465214 0.45137098
vt 0.8246522 0.36512595
vt 0.993587 0.36512604
vt 0.99358726 0.0010001083
vt 0.82465243 0.001
vt 0.0010001083 0.5436036
vt 0.17181985 0.5436036
vt 0.17181987 0.4563963
vt 0.0010001083 0.4563963
vt 0.1718198 0.9117925
vt 0.0010000542 0.9117925
vt 0.001 0.9989998
vt 0.17181973 0.999
vt 0.0010002167 0.08820732
vt 0.17181993 0.08820732
vt 0.17181993 0.0010000272
vt 0.0010002167 0.0010000272
vt 0.82465214 0.45137098
vt 0.9935869 0.4513712
vt 0.993587 0.36512604
vt 0.8246522 0.36512595
vt 0.21551889 0.8936918
vt 0.21551889 0.5617042
vt 0.17181985 0.5436036
vt 0.1718198 0.9117925
vt 0.27712792 0.50009537
vt 0.6091153 0.50009537
vt 0.62721616 0.4563963
vt 0.25902718 0.4563963
vt 0.6707242 0.56170434
vt 0.6707242 0.893692
vt 0.7144234 0.91179264
vt 0.7144234 0.5436036
vt 0.6091152 0.9553008
vt 0.27712783 0.9553008
vt 0.2590271 0.999
vt 0.627216 0.999
vt 0.1718198 0.9117925
vt 0.2590271 0.999
vt 0.27712783 0.9553008
vt 0.21551889 0.8936918
vt 0.25902718 0.4563963
vt 0.17181985 0.5436036
vt 0.21551889 0.5617042
vt 0.27712792 0.50009537
vt 0.627216 0.999
vt 0.7144234 0.91179264
vt 0.6707242 0.893692
vt 0.6091152 0.9553008
vt 0.7144234 0.5436036
vt 0.62721616 0.4563963
vt 0.6091153 0.50009537
vt 0.6707242 0.56170434
vt 0.2735131 0.001
vt 0.2735131 0.062371444
vt 0.4487424 0.0623715
vt 0.44874242 0.001
vt 0.54263216 0.09488975
vt 0.48126072 0.09488975
vt 0.48126084 0.2701192
vt 0.54263216 0.2701192
vt 0.4487424 0.36400905
vt 0.4487424 0.30263752
vt 0.2735131 0.30263746
vt 0.2735131 0.36400893
vt 0.17962326 0.27011913
vt 0.24099472 0.27011913
vt 0.24099466 0.094889805
vt 0.17962326 0.094889805
vt 0.17962326 0.094889805
vt 0.24099466 0.094889805
vt 0.24099478 0.048901815
vt 0.17962326 0.048901815
vt 0.44874242 0.001
vt 0.4487424 0.0623715
vt 0.49473026 0.0623715
vt 0.49473035 0.001
vt 0.2735131 0.36400893
vt 0.2735131 0.30263746
vt 0.22752514 0.3026374
vt 0.22752509 0.36400893
vt 0.54263216 0.2701192
vt 0.48126084 0.2701192
vt 0.48126084 0.31610698
vt 0.54263216 0.31610698
vt 0.2735131 0.062371444
vt 0.36112773 0.18250446
vt 0.4487424 0.0623715
vt 0.24099466 0.094889805
vt 0.48126072 0.09488975
vt 0.24099472 0.27011913
vt 0.48126084 0.2701192
vt 0.2735131 0.30263746
vt 0.4487424 0.30263752
vt 0.6091152 0.9553008
vt 0.53410894 0.8524558
vt 0.3521341 0.8524558
vt 0.27712783 0.9553008
vt 0.6707242 0.893692
vt 0.3183639 0.8186855
vt 0.5678792 0.8186856
vt 0.21551889 0.8936918
vt 0.6707242 0.56170434
vt 0.3183639 0.6367105
vt 0.5678792 0.63671064
vt 0.21551889 0.5617042
vt 0.6091153 0.50009537
vt 0.35213417 0.6029403
vt 0.53410894 0.6029403
vt 0.27712792 0.50009537
vn -0 0 1
vn -0 0 1
vn -0 0 1
vn -0 0 1
vn 1 0 0
vn 1 0 0
vn 1 0 0
vn 1 0 0
vn -0 0 -1
vn -0 0 -1
vn -0 0 -1
vn -0 0 -1
vn -1 0 0
vn -1 0 0
vn -1 0 0
vn -1 0 0
vn 0.7071067 0 0.70710677
vn 0.7071067 0 0.70710677
vn 0.7071067 0 0.70710677
vn 0.7071067 0 0.70710677
vn -0.7071067 0 0.70710677
vn -0.7071067 0 0.70710677
vn -0.7071067 0 0.70710677
vn -0.7071067 0 0.70710677
vn 0.70710677 0 -0.7071067
vn 0.70710677 0 -0.7071067
vn 0.70710677 0 -0.7071067
vn 0.70710677 0 -0.7071067
vn -0.70710677 0 -0.7071067
vn -0.70710677 0 -0.7071067
vn -0.70710677 0 -0.7071067
vn -0.70710677 0 -0.7071067
vn -0 0.7071069 0.70710665
vn -0 0.7071069 0.70710665
vn -0 0.7071068 0.70710665
vn -0 0.7071068 0.70710665
vn 0.70710665 0.7071068 0
vn 0.70710665 0.7071069 0
vn 0.70710665 0.7071068 0
vn 0.70710665 0.7071068 0
vn -0 0.7071069 -0.70710665
vn -0 0.7071069 -0.70710665
vn -0 0.7071068 -0.70710665
vn -0 0.7071068 -0.70710665
vn -0.70710665 0.7071069 0
vn -0.70710665 0.7071068 0
vn -0.70710665 0.7071068 0
vn -0.70710665 0.7071068 0
vn -0.49999985 0.7071068 0.49999994
vn -0.49999985 0.7071068 0.49999994
vn -0.49999985 0.7071068 0.49999994
vn -0.4999999 0.7071069 0.49999994
vn 0.4999999 0.7071068 0.49999994
vn 0.4999999 0.7071068 0.49999994
vn 0.4999999 0.7071068 0.49999997
vn 0.49999994 0.7071068 0.49999997
vn -0.49999994 0.7071068 -0.49999985
vn -0.49999994 0.7071068 -0.49999985
vn -0.49999997 0.7071068 -0.4999999
vn -0.49999997 0.7071068 -0.4999999
vn 0.49999994 0.7071068 -0.49999985
vn 0.49999994 0.7071068 -0.49999985
vn 0.49999997 0.7071068 -0.4999999
vn 0.49999997 0.7071068 -0.4999999
vn -0 0 -1
vn -0 0 -1
vn -0 0 -1
vn -0 0 -1
vn -1 0 0
vn -1 0 0
vn -1 0 0
vn -1 0 0
vn -0 0 1
vn -0 0 1
vn -0 0 1
vn -0 0 1
vn 1 0 0
vn 1 0 0
vn 1 0 0
vn 1 0 0
vn 0.7071068 0 -0.7071067
vn 0.7071068 0 -0.7071067
vn 0.7071068 0 -0.7071067
vn 0.7071068 0 -0.7071067
vn -0.7071068 0 -0.7071067
vn -0.7071068 0 -0.7071067
vn -0.7071068 0 -0.7071067
vn -0.7071068 0 -0.7071067
vn 0.7071067 0 0.7071068
vn 0.7071067 0 0.7071068
vn 0.7071067 0 0.7071068
vn 0.7071067 0 0.7071068
vn -0.70710665 0 0.7071068
vn -0.70710665 0 0.7071068
vn -0.70710665 0 0.7071068
vn -0.70710665 0 0.7071068
vn -0 1 0
vn -0 1 0
vn -0 1 0
vn -0 1 0
vn -0 1 0
vn -0 1 0
vn -0 1 0
vn -0 1 0
vn -0 1 0
vn -0 1 0
vn -0 1 0
vn -0 1 0
vn -0 1 0
vn -0 1 0
vn -0 1 0
vn -0 1 0
vn -0 1 0
vn -0 1 0
vn -0 1 0
vn -0 1 0
vn -0 1 0
vn -0 1 0
vn -0 1 0
vn -0 1 0
vn -0 1 0
g torpedo_launcher_base_0
f 3/3/3 2/2/2 1/1/1
f 4/4/4 3/3/3 1/1/1
f 7/7/7 6/6/6 5/5/5
f 8/8/8 7/7/7 5/5/5
f 11/11/11 10/10/10 9/9/9
f 12/12/12 11/11/11 9/9/9
f 15/15/15 14/14/14 13/13/13
f 16/16/16 15/15/15 13/13/13
f 19/19/19 18/18/18 17/17/17
f 20/20/20 19/19/19 17/17/17
f 23/23/23 22/22/22 21/21/21
f 24/24/24 23/23/23 21/21/21
f 27/27/27 26/26/26 25/25/25
f 28/28/28 27/27/27 25/25/25
f 31/31/31 30/30/30 29/29/29
f 32/32/32 31/31/31 29/29/29
f 35/35/35 34/34/34 33/33/33
f 36/36/36 35/35/35 33/33/33
f 39/39/39 38/38/38 37/37/37
f 40/40/40 39/39/39 37/37/37
f 43/43/43 42/42/42 41/41/41
f 44/44/44 43/43/43 41/41/41
f 47/47/47 46/46/46 45/45/45
f 48/48/48 47/47/47 45/45/45
f 51/51/51 50/50/50 49/49/49
f 52/52/52 51/51/51 49/49/49
f 55/55/55 54/54/54 53/53/53
f 56/56/56 55/55/55 53/53/53
f 59/59/59 58/58/58 57/57/57
f 60/60/60 59/59/59 57/57/57
f 63/63/63 62/62/62 61/61/61
f 64/64/64 63/63/63 61/61/61
f 67/67/67 66/66/66 65/65/65
f 68/68/68 67/67/67 65/65/65
f 71/71/71 70/70/70 69/69/69
f 72/72/72 71/71/71 69/69/69
f 75/75/75 74/74/74 73/73/73
f 76/76/76 75/75/75 73/73/73
f 79/79/79 78/78/78 77/77/77
f 80/80/80 79/79/79 77/77/77
f 83/83/83 82/82/82 81/81/81
f 84/84/84 83/83/83 81/81/81
f 87/87/87 86/86/86 85/85/85
f 88/88/88 87/87/87 85/85/85
f 91/91/91 90/90/90 89/89/89
f 92/92/92 91/91/91 89/89/89
f 95/95/95 94/94/94 93/93/93
f 96/96/96 95/95/95 93/93/93
f 99/99/99 98/98/98 97/97/97
f 97/97/97 98/98/98 100/100/100
f 101/101/101 98/98/98 99/99/99
f 100/100/100 98/98/98 102/102/102
f 103/103/103 98/98/98 101/101/101
f 102/102/102 98/98/98 104/104/104
f 105/105/105 98/98/98 103/103/103
f 104/104/104 98/98/98 105/105/105
f 108/108/108 107/107/107 106/106/106
f 109/109/109 108/108/108 106/106/106
f 106/106/106 107/107/107 110/110/110
f 111/111/111 108/108/108 109/109/109
f 107/107/107 112/112/112 110/110/110
f 113/113/113 111/111/111 109/109/109
f 110/110/110 112/112/112 114/114/114
f 115/115/115 111/111/111 113/113/113
f 112/112/112 116/116/116 114/114/114
f 117/117/117 115/115/115 113/113/113
f 114/114/114 116/116/116 118/118/118
f 119/119/119 115/115/115 117/117/117
f 116/116/116 120/120/120 118/118/118
f 121/121/121 119/119/119 117/117/117
f 118/118/118 120/120/120 121/121/121
f 120/120/120 119/119/119 121/121/121
